<svg width="264" height="109" viewBox="0 0 264 109" fill="none" xmlns="http://www.w3.org/2000/svg" style="" class="">
<path fill-rule="evenodd" clip-rule="evenodd" d="M53.8811 27.3764C37.5541 35.2004 15.5003 54.6164 19.8713 57.3174C21.3943 58.2594 22.8523 56.9404 22.1913 55.2184C21.5793 53.6224 29.2702 45.4814 35.6842 40.9344L39.0022 38.5834L34.0612 48.4494C31.3432 53.8754 26.5983 64.0234 23.5163 71.0004C18.1923 83.0524 17.4823 84.1104 9.32026 92.1634C1.58426 99.7954 0.759236 100.966 1.04724 103.912C1.29824 106.482 1.93624 107.334 4.02324 107.888C8.41124 109.051 15.8243 107.108 25.8673 102.163C33.8683 98.2245 36.7982 96.0524 44.4362 88.4004C51.2582 81.5664 54.4171 77.4864 57.1861 71.9314C63.8241 58.6144 61.7652 51.8154 51.0912 51.8154H45.6922L51.6222 46.8604C62.0812 38.1204 69.2731 27.6214 66.6181 24.9664C64.7141 23.0624 61.6881 23.6344 53.8811 27.3764ZM64.8671 28.0924C64.8671 32.5944 47.8182 49.1634 36.4912 55.6704C34.3592 56.8944 32.3992 57.6804 32.1352 57.4164C31.4602 56.7414 42.0432 36.5844 43.8672 35.0704C44.6922 34.3864 48.4652 32.2484 52.2512 30.3204C59.2622 26.7514 64.8671 25.7614 64.8671 28.0924ZM54.3201 54.7974C66.8861 59.5754 48.4043 88.8854 25.6333 100.291C17.8793 104.176 9.24425 106.377 5.47425 105.431C2.21425 104.613 2.20325 103.381 5.41225 98.7504C8.58425 94.1734 16.6133 87.4714 15.4493 90.3734C15.0213 91.4414 14.4323 94.1154 14.1423 96.3154C13.3903 102.014 15.1303 99.6784 17.3903 91.9554C19.0583 86.2524 19.8073 85.1844 24.6363 81.6164C30.5403 77.2554 31.0863 75.2814 25.4203 78.7824C23.4663 79.9904 21.8673 80.6824 21.8673 80.3204C21.8673 79.9584 23.4773 75.9144 25.4453 71.3324C28.7873 63.5534 29.4072 62.7664 34.8342 59.4164C42.7282 54.5444 49.4581 52.9484 54.3201 54.7974Z" stroke="black" class="RvllJWdx_0"></path>
<path fill-rule="evenodd" clip-rule="evenodd" d="M141.174 63.6825C134.753 69.6735 128.028 73.4744 125.54 72.5194C123.82 71.8594 122.852 65.2315 124.269 63.8145C126.57 61.5135 121.461 62.9805 118.512 65.4675C114.147 69.1495 100.065 75.8155 96.6516 75.8155C94.1406 75.8155 93.8986 75.5395 94.4566 73.3155C95.0816 70.8285 93.6156 69.7954 92.3556 71.8344C90.8666 74.2434 81.2456 78.0775 76.3966 78.1945C71.6576 78.3085 71.3496 78.1625 71.0596 75.6505C70.5716 71.4315 67.8106 71.1544 64.5426 74.9954C56.2666 84.7224 56.5475 92.3695 64.8945 84.5705C67.8055 81.8515 69.1765 81.3115 73.3675 81.2335C76.2275 81.1805 81.0476 80.0495 84.6306 78.5895C90.1126 76.3555 90.9996 76.2294 91.7546 77.5774C92.9056 79.6344 97.5887 78.8084 105.368 75.1764C108.668 73.6364 111.749 72.1975 112.215 71.9795C112.681 71.7625 112.569 72.5065 111.965 73.6345C109.594 78.0645 111.602 77.9545 116.669 73.3765L120.476 69.9374L121.585 72.8765C122.269 74.6895 123.413 75.8155 124.57 75.8155C126.508 75.8155 131.446 73.5195 135.948 70.5245C138.455 68.8565 138.525 68.8695 138.448 70.9605C138.321 74.3705 140.421 74.2125 144.549 70.5035C147.827 67.5575 149.237 67.0105 154.502 66.6385C160.663 66.2025 173.867 60.8265 173.867 58.7525C173.867 57.3875 173.391 57.5235 167.088 60.6915C157.139 65.6925 150.868 65.9485 150.868 61.3555C150.868 60.0765 150.156 58.7565 149.286 58.4225C147.309 57.6635 148.348 56.9895 141.174 63.6825ZM146.868 63.6795C146.868 65.7935 141.605 71.5275 141.088 69.9755C140.699 68.8085 144.997 61.8465 146.118 61.8275C146.531 61.8215 146.868 62.6545 146.868 63.6795ZM121.868 66.1195C121.868 66.2865 120.225 67.9735 118.218 69.8695C114.511 73.3695 114.493 72.1735 118.191 68.0655C119.925 66.1395 121.868 65.1115 121.868 66.1195ZM64.4855 82.6515C60.7455 86.3925 60.1206 84.5295 63.4566 79.5855C66.1276 75.6275 66.3635 75.4905 66.6905 77.7045C66.9205 79.2665 66.1565 80.9805 64.4855 82.6515Z" stroke="black" class="RvllJWdx_1"></path>
<path d="M225.867 3.61441C211.751 12.6504 191.17 42.1264 184.983 62.1704C179.144 81.0884 185.599 86.2194 201.479 75.2824C207.204 71.3404 226.867 51.5124 226.867 49.6824C226.867 49.0754 222.03 53.5174 216.117 59.5544C204.952 70.9554 196.552 77.3294 191.311 78.3764C186.678 79.3034 185.5 77.1904 186.085 69.0094C187.497 49.2784 215.546 8.02941 230.742 3.33541C235.28 1.93341 235.676 6.88241 231.571 13.7044C230.103 16.1454 229.929 16.9634 230.949 16.6264C233.434 15.8084 236.906 8.5844 236.626 4.8154C236.397 1.7264 236.015 1.28141 233.367 1.02541C231.396 0.83441 228.824 1.72241 225.867 3.61441Z" stroke="black" class="RvllJWdx_2"></path>
<path d="M250.117 13.3444C245.866 21.6374 226.71 67.9914 227.293 68.5744C228.271 69.5534 229.464 67.8664 234.899 57.8154C240.927 46.6694 241.867 45.4744 241.867 48.9604C241.867 50.3604 242.731 52.2874 243.787 53.2424C245.612 54.8954 245.925 54.8834 250.159 53.0104C254.526 51.0784 263.352 43.9674 262.474 43.0884C262.228 42.8434 259.698 44.4834 256.851 46.7344C251.588 50.8944 247.798 52.5094 245.963 51.3744C245.403 51.0284 244.651 49.1814 244.292 47.2694C243.397 42.4954 242.454 42.2604 239.428 46.0554L236.83 49.3154L238.268 45.8154C239.059 43.8904 242.681 35.3814 246.317 26.9064C249.953 18.4314 252.76 11.0064 252.555 10.4064C252.35 9.8064 251.253 11.1284 250.117 13.3444Z" stroke="black" class="RvllJWdx_3"></path>
<path fill-rule="evenodd" clip-rule="evenodd" d="M98.8672 61.8154C98.8672 62.3654 99.2902 62.8154 99.8082 62.8154C100.326 62.8154 101.027 62.3654 101.367 61.8154C101.707 61.2654 101.283 60.8154 100.426 60.8154C99.5692 60.8154 98.8672 61.2654 98.8672 61.8154Z" stroke="black" class="RvllJWdx_4"></path>
<style data-made-with="vivus-instant">.RvllJWdx_0{stroke-dasharray:598 600;stroke-dashoffset:599;animation:RvllJWdx_draw_0 3800ms ease-out 0ms infinite,RvllJWdx_fade 3800ms linear 0ms infinite;}.RvllJWdx_1{stroke-dasharray:361 363;stroke-dashoffset:362;animation:RvllJWdx_draw_1 3800ms ease-out 0ms infinite,RvllJWdx_fade 3800ms linear 0ms infinite;}.RvllJWdx_2{stroke-dasharray:332 334;stroke-dashoffset:333;animation:RvllJWdx_draw_2 3800ms ease-out 0ms infinite,RvllJWdx_fade 3800ms linear 0ms infinite;}.RvllJWdx_3{stroke-dasharray:199 201;stroke-dashoffset:200;animation:RvllJWdx_draw_3 3800ms ease-out 0ms infinite,RvllJWdx_fade 3800ms linear 0ms infinite;}.RvllJWdx_4{stroke-dasharray:8 10;stroke-dashoffset:9;animation:RvllJWdx_draw_4 3800ms ease-out 0ms infinite,RvllJWdx_fade 3800ms linear 0ms infinite;}@keyframes RvllJWdx_draw{100%{stroke-dashoffset:0;}}@keyframes RvllJWdx_fade{0%{stroke-opacity:1;}97.36842105263158%{stroke-opacity:1;}100%{stroke-opacity:0;}}@keyframes RvllJWdx_draw_0{10.526315789473683%{stroke-dashoffset: 599}63.1578947368421%{ stroke-dashoffset: 0;}100%{ stroke-dashoffset: 0;}}@keyframes RvllJWdx_draw_1{17.105263157894736%{stroke-dashoffset: 362}69.73684210526315%{ stroke-dashoffset: 0;}100%{ stroke-dashoffset: 0;}}@keyframes RvllJWdx_draw_2{23.684210526315788%{stroke-dashoffset: 333}76.31578947368422%{ stroke-dashoffset: 0;}100%{ stroke-dashoffset: 0;}}@keyframes RvllJWdx_draw_3{30.263157894736842%{stroke-dashoffset: 200}82.89473684210526%{ stroke-dashoffset: 0;}100%{ stroke-dashoffset: 0;}}@keyframes RvllJWdx_draw_4{36.84210526315789%{stroke-dashoffset: 9}89.47368421052632%{ stroke-dashoffset: 0;}100%{ stroke-dashoffset: 0;}}</style></svg>